<mxfile host="app.diagrams.net" modified="2021-06-09T14:31:53.160Z" agent="5.0 (Windows NT 6.1; WOW64) AppleWebKit/537.36 (KHTML, like Gecko) Chrome/89.0.4389.105 YaBrowser/21.3.3.234 Yowser/2.5 Safari/537.36" etag="itLhkXd4GcQtNZ1Cq9Bl" version="14.2.7" type="github">
  <diagram id="nobz6cuq7mpTXAuKWwcm" name="Page-1">
    <mxGraphModel dx="820" dy="477" grid="1" gridSize="10" guides="1" tooltips="1" connect="1" arrows="1" fold="1" page="1" pageScale="1" pageWidth="827" pageHeight="1169" math="0" shadow="0">
      <root>
        <mxCell id="0" />
        <mxCell id="1" parent="0" />
        <mxCell id="1SF9bloHiP33dmh6JXO3-1" value="StartUI" style="ellipse;whiteSpace=wrap;html=1;aspect=fixed;" vertex="1" parent="1">
          <mxGeometry x="320" y="200" width="80" height="80" as="geometry" />
        </mxCell>
        <mxCell id="1SF9bloHiP33dmh6JXO3-3" style="edgeStyle=orthogonalEdgeStyle;rounded=0;orthogonalLoop=1;jettySize=auto;html=1;entryX=0.5;entryY=0;entryDx=0;entryDy=0;" edge="1" parent="1" source="1SF9bloHiP33dmh6JXO3-2" target="1SF9bloHiP33dmh6JXO3-1">
          <mxGeometry relative="1" as="geometry" />
        </mxCell>
        <mxCell id="1SF9bloHiP33dmh6JXO3-2" value="Scanner" style="ellipse;whiteSpace=wrap;html=1;aspect=fixed;" vertex="1" parent="1">
          <mxGeometry x="320" y="40" width="80" height="80" as="geometry" />
        </mxCell>
        <mxCell id="1SF9bloHiP33dmh6JXO3-5" style="edgeStyle=orthogonalEdgeStyle;rounded=0;orthogonalLoop=1;jettySize=auto;html=1;entryX=1;entryY=0.5;entryDx=0;entryDy=0;" edge="1" parent="1" source="1SF9bloHiP33dmh6JXO3-4" target="1SF9bloHiP33dmh6JXO3-1">
          <mxGeometry relative="1" as="geometry" />
        </mxCell>
        <mxCell id="1SF9bloHiP33dmh6JXO3-4" value="Tracker" style="ellipse;whiteSpace=wrap;html=1;aspect=fixed;" vertex="1" parent="1">
          <mxGeometry x="480" y="200" width="80" height="80" as="geometry" />
        </mxCell>
        <mxCell id="1SF9bloHiP33dmh6JXO3-7" style="edgeStyle=orthogonalEdgeStyle;rounded=0;orthogonalLoop=1;jettySize=auto;html=1;exitX=0.5;exitY=0;exitDx=0;exitDy=0;entryX=0.5;entryY=1;entryDx=0;entryDy=0;" edge="1" parent="1" source="1SF9bloHiP33dmh6JXO3-6" target="1SF9bloHiP33dmh6JXO3-1">
          <mxGeometry relative="1" as="geometry" />
        </mxCell>
        <mxCell id="1SF9bloHiP33dmh6JXO3-8" style="edgeStyle=orthogonalEdgeStyle;rounded=0;orthogonalLoop=1;jettySize=auto;html=1;exitX=1;exitY=0.5;exitDx=0;exitDy=0;" edge="1" parent="1" source="1SF9bloHiP33dmh6JXO3-6" target="1SF9bloHiP33dmh6JXO3-4">
          <mxGeometry relative="1" as="geometry" />
        </mxCell>
        <mxCell id="1SF9bloHiP33dmh6JXO3-6" value="Item" style="ellipse;whiteSpace=wrap;html=1;aspect=fixed;" vertex="1" parent="1">
          <mxGeometry x="320" y="360" width="80" height="80" as="geometry" />
        </mxCell>
      </root>
    </mxGraphModel>
  </diagram>
</mxfile>
